<svg width="86" height="20" viewBox="0 0 86 20" fill="none" xmlns="http://www.w3.org/2000/svg">
<path d="M45.6255 20.0001C44.6302 20.0001 43.7488 19.1186 43.7488 18.1234C43.7488 17.1282 44.6302 16.2467 45.6255 16.2467C46.6207 16.2467 47.5021 17.1282 47.5021 18.1234C47.5021 19.1186 46.6207 20.0001 45.6255 20.0001ZM45.6255 7.887C44.6302 7.887 43.7488 7.00553 43.7488 6.01032C43.7488 5.01512 44.6302 4.13365 45.6255 4.13365C46.6207 4.13365 47.5021 5.01512 47.5021 6.01032C47.5021 7.00553 46.6207 7.887 45.6255 7.887ZM49.6632 20.0001C48.6679 20.0001 47.7865 19.1186 47.7865 18.1234C47.7865 17.1282 48.6679 16.2467 49.6632 16.2467C50.6584 16.2467 51.5398 17.1282 51.5398 18.1234C51.5398 19.1186 50.6584 20.0001 49.6632 20.0001ZM49.6632 11.9247C48.6679 11.9247 47.7865 11.0432 47.7865 10.048C47.7865 9.05282 48.6679 8.17135 49.6632 8.17135C50.6584 8.17135 51.5398 9.05282 51.5398 10.048C51.5398 11.0432 50.6584 11.9247 49.6632 11.9247ZM49.6632 3.8493C48.6679 3.8493 47.7865 2.96783 47.7865 1.97263C47.7865 0.977417 48.6679 0.0959473 49.6632 0.0959473C50.6584 0.0959473 51.5398 0.977417 51.5398 1.97263C51.5398 2.96783 50.6584 3.8493 49.6632 3.8493ZM53.7009 20.0001C52.7056 20.0001 51.8242 19.1186 51.8242 18.1234C51.8242 17.1282 52.7056 16.2467 53.7009 16.2467C54.6961 16.2467 55.5775 17.1282 55.5775 18.1234C55.5775 19.1186 54.6961 20.0001 53.7009 20.0001ZM53.7009 11.9247C52.7056 11.9247 51.8242 11.0432 51.8242 10.048C51.8242 9.05282 52.7056 8.17135 53.7009 8.17135C54.6961 8.17135 55.5775 9.05282 55.5775 10.048C55.5775 11.0432 54.6961 11.9247 53.7009 11.9247ZM53.7009 3.8493C52.7056 3.8493 51.8242 2.96783 51.8242 1.97263C51.8242 0.977417 52.7056 0.0959473 53.7009 0.0959473C54.6961 0.0959473 55.5775 0.977417 55.5775 1.97263C55.5775 2.96783 54.6961 3.8493 53.7009 3.8493ZM57.7386 20.0001C56.7433 20.0001 55.8619 19.1186 55.8619 18.1234C55.8619 17.1282 56.7433 16.2467 57.7386 16.2467C58.7338 16.2467 59.6152 17.1282 59.6152 18.1234C59.6152 19.1186 58.7338 20.0001 57.7386 20.0001ZM57.7386 11.9247C56.7433 11.9247 55.8619 11.0432 55.8619 10.048C55.8619 9.05282 56.7433 8.17135 57.7386 8.17135C58.7338 8.17135 59.6152 9.05282 59.6152 10.048C59.6152 11.0432 58.7338 11.9247 57.7386 11.9247ZM57.7386 3.8493C56.7433 3.8493 55.8619 2.96783 55.8619 1.97263C55.8619 0.977417 56.7433 0.0959473 57.7386 0.0959473C58.7338 0.0959473 59.6152 0.977417 59.6152 1.97263C59.6152 2.96783 58.7338 3.8493 57.7386 3.8493ZM61.7763 15.9624C60.781 15.9624 59.8996 15.0809 59.8996 14.0857C59.8996 13.0905 60.781 12.209 61.7763 12.209C62.7715 12.209 63.6529 13.0905 63.6529 14.0857C63.6529 15.0809 62.7715 15.9624 61.7763 15.9624ZM61.7763 3.8493C60.781 3.8493 59.8996 2.96783 59.8996 1.97263C59.8996 0.977417 60.781 0.0959473 61.7763 0.0959473C62.7715 0.0959473 63.6529 0.977417 63.6529 1.97263C63.6529 2.96783 62.7715 3.8493 61.7763 3.8493Z" fill="#12161C"/>
<path d="M67.7978 3.8493C66.8026 3.8493 65.9211 2.96783 65.9211 1.97263C65.9211 0.977417 66.8026 0.0959473 67.7978 0.0959473C68.793 0.0959473 69.6745 0.977417 69.6745 1.97263C69.6745 2.96783 68.793 3.8493 67.7978 3.8493ZM71.8355 3.8493C70.8403 3.8493 69.9588 2.96783 69.9588 1.97263C69.9588 0.977417 70.8403 0.0959473 71.8355 0.0959473C72.8307 0.0959473 73.7122 0.977417 73.7122 1.97263C73.7122 2.96783 72.8307 3.8493 71.8355 3.8493ZM75.8732 20.0001C74.878 20.0001 73.9965 19.1186 73.9965 18.1234C73.9965 17.1282 74.878 16.2467 75.8732 16.2467C76.8684 16.2467 77.7499 17.1282 77.7499 18.1234C77.7499 19.1186 76.8684 20.0001 75.8732 20.0001ZM75.8732 15.9624C74.878 15.9624 73.9965 15.0809 73.9965 14.0857C73.9965 13.0905 74.878 12.209 75.8732 12.209C76.8684 12.209 77.7499 13.0905 77.7499 14.0857C77.7499 15.0809 76.8684 15.9624 75.8732 15.9624ZM75.8732 11.9247C74.878 11.9247 73.9965 11.0432 73.9965 10.048C73.9965 9.05282 74.878 8.17135 75.8732 8.17135C76.8684 8.17135 77.7499 9.05282 77.7499 10.048C77.7499 11.0432 76.8684 11.9247 75.8732 11.9247ZM75.8732 7.887C74.878 7.887 73.9965 7.00553 73.9965 6.01032C73.9965 5.01512 74.878 4.13365 75.8732 4.13365C76.8684 4.13365 77.7499 5.01512 77.7499 6.01032C77.7499 7.00553 76.8684 7.887 75.8732 7.887ZM75.8732 3.8493C74.878 3.8493 73.9965 2.96783 73.9965 1.97263C73.9965 0.977417 74.878 0.0959473 75.8732 0.0959473C76.8684 0.0959473 77.7499 0.977417 77.7499 1.97263C77.7499 2.96783 76.8684 3.8493 75.8732 3.8493ZM79.9109 3.8493C78.9157 3.8493 78.0342 2.96783 78.0342 1.97263C78.0342 0.977417 78.9157 0.0959473 79.9109 0.0959473C80.9061 0.0959473 81.7876 0.977417 81.7876 1.97263C81.7876 2.96783 80.9061 3.8493 79.9109 3.8493ZM83.9486 3.8493C82.9534 3.8493 82.0719 2.96783 82.0719 1.97263C82.0719 0.977417 82.9534 0.0959473 83.9486 0.0959473C84.9438 0.0959473 85.8253 0.977417 85.8253 1.97263C85.8253 2.96783 84.9438 3.8493 83.9486 3.8493Z" fill="#12161C"/>
<path d="M1.87668 3.75335C0.88147 3.75335 0 2.87188 0 1.87668C0 0.88147 0.88147 0 1.87668 0C2.87188 0 3.75335 0.88147 3.75335 1.87668C3.75335 2.87188 2.87188 3.75335 1.87668 3.75335ZM5.91438 3.75335C4.91917 3.75335 4.0377 2.87188 4.0377 1.87668C4.0377 0.88147 4.91917 0 5.91438 0C6.90958 0 7.79105 0.88147 7.79105 1.87668C7.79105 2.87188 6.90958 3.75335 5.91438 3.75335ZM9.95208 19.9042C8.95687 19.9042 8.0754 19.0227 8.0754 18.0275C8.0754 17.0323 8.95687 16.1508 9.95208 16.1508C10.9473 16.1508 11.8288 17.0323 11.8288 18.0275C11.8288 19.0227 10.9473 19.9042 9.95208 19.9042ZM9.95208 15.8665C8.95687 15.8665 8.0754 14.985 8.0754 13.9898C8.0754 12.9946 8.95687 12.1131 9.95208 12.1131C10.9473 12.1131 11.8288 12.9946 11.8288 13.9898C11.8288 14.985 10.9473 15.8665 9.95208 15.8665ZM9.95208 11.8288C8.95687 11.8288 8.0754 10.9473 8.0754 9.95208C8.0754 8.95687 8.95687 8.0754 9.95208 8.0754C10.9473 8.0754 11.8288 8.95687 11.8288 9.95208C11.8288 10.9473 10.9473 11.8288 9.95208 11.8288ZM9.95208 7.79105C8.95687 7.79105 8.0754 6.90958 8.0754 5.91438C8.0754 4.91917 8.95687 4.0377 9.95208 4.0377C10.9473 4.0377 11.8288 4.91917 11.8288 5.91438C11.8288 6.90958 10.9473 7.79105 9.95208 7.79105ZM9.95208 3.75335C8.95687 3.75335 8.0754 2.87188 8.0754 1.87668C8.0754 0.88147 8.95687 0 9.95208 0C10.9473 0 11.8288 0.88147 11.8288 1.87668C11.8288 2.87188 10.9473 3.75335 9.95208 3.75335ZM13.9898 3.75335C12.9946 3.75335 12.1131 2.87188 12.1131 1.87668C12.1131 0.88147 12.9946 0 13.9898 0C14.985 0 15.8664 0.88147 15.8664 1.87668C15.8664 2.87188 14.985 3.75335 13.9898 3.75335ZM18.0275 3.75335C17.0323 3.75335 16.1508 2.87188 16.1508 1.87668C16.1508 0.88147 17.0323 0 18.0275 0C19.0227 0 19.9042 0.88147 19.9042 1.87668C19.9042 2.87188 19.0227 3.75335 18.0275 3.75335Z" fill="#12161C"/>
<path d="M22.9524 15.8666C21.9572 15.8666 21.0757 14.9851 21.0757 13.9899C21.0757 12.9947 21.9572 12.1132 22.9524 12.1132C23.9476 12.1132 24.829 12.9947 24.829 13.9899C24.829 14.9851 23.9476 15.8666 22.9524 15.8666ZM22.9524 11.8289C21.9572 11.8289 21.0757 10.9474 21.0757 9.9522C21.0757 8.95699 21.9572 8.07552 22.9524 8.07552C23.9476 8.07552 24.829 8.95699 24.829 9.9522C24.829 10.9474 23.9476 11.8289 22.9524 11.8289ZM22.9524 7.79118C21.9572 7.79118 21.0757 6.90971 21.0757 5.9145C21.0757 4.91929 21.9572 4.03782 22.9524 4.03782C23.9476 4.03782 24.829 4.91929 24.829 5.9145C24.829 6.90971 23.9476 7.79118 22.9524 7.79118ZM26.9901 19.9043C25.9949 19.9043 25.1134 19.0228 25.1134 18.0276C25.1134 17.0324 25.9949 16.1509 26.9901 16.1509C27.9853 16.1509 28.8667 17.0324 28.8667 18.0276C28.8667 19.0228 27.9853 19.9043 26.9901 19.9043ZM26.9901 11.8289C25.9949 11.8289 25.1134 10.9474 25.1134 9.9522C25.1134 8.95699 25.9949 8.07552 26.9901 8.07552C27.9853 8.07552 28.8667 8.95699 28.8667 9.9522C28.8667 10.9474 27.9853 11.8289 26.9901 11.8289ZM26.9901 3.75348C25.9949 3.75348 25.1134 2.87201 25.1134 1.8768C25.1134 0.881592 25.9949 0.00012207 26.9901 0.00012207C27.9853 0.00012207 28.8667 0.881592 28.8667 1.8768C28.8667 2.87201 27.9853 3.75348 26.9901 3.75348ZM31.0278 19.9043C30.0326 19.9043 29.1511 19.0228 29.1511 18.0276C29.1511 17.0324 30.0326 16.1509 31.0278 16.1509C32.023 16.1509 32.9044 17.0324 32.9044 18.0276C32.9044 19.0228 32.023 19.9043 31.0278 19.9043ZM31.0278 11.8289C30.0326 11.8289 29.1511 10.9474 29.1511 9.9522C29.1511 8.95699 30.0326 8.07552 31.0278 8.07552C32.023 8.07552 32.9044 8.95699 32.9044 9.9522C32.9044 10.9474 32.023 11.8289 31.0278 11.8289ZM31.0278 3.75348C30.0326 3.75348 29.1511 2.87201 29.1511 1.8768C29.1511 0.881592 30.0326 0.00012207 31.0278 0.00012207C32.023 0.00012207 32.9044 0.881592 32.9044 1.8768C32.9044 2.87201 32.023 3.75348 31.0278 3.75348ZM35.0655 19.9043C34.0703 19.9043 33.1888 19.0228 33.1888 18.0276C33.1888 17.0324 34.0703 16.1509 35.0655 16.1509C36.0607 16.1509 36.9421 17.0324 36.9421 18.0276C36.9421 19.0228 36.0607 19.9043 35.0655 19.9043ZM35.0655 11.8289C34.0703 11.8289 33.1888 10.9474 33.1888 9.9522C33.1888 8.95699 34.0703 8.07552 35.0655 8.07552C36.0607 8.07552 36.9421 8.95699 36.9421 9.9522C36.9421 10.9474 36.0607 11.8289 35.0655 11.8289ZM35.0655 3.75348C34.0703 3.75348 33.1888 2.87201 33.1888 1.8768C33.1888 0.881592 34.0703 0.00012207 35.0655 0.00012207C36.0607 0.00012207 36.9421 0.881592 36.9421 1.8768C36.9421 2.87201 36.0607 3.75348 35.0655 3.75348ZM39.1032 19.9043C38.108 19.9043 37.2265 19.0228 37.2265 18.0276C37.2265 17.0324 38.108 16.1509 39.1032 16.1509C40.0984 16.1509 40.9798 17.0324 40.9798 18.0276C40.9798 19.0228 40.0984 19.9043 39.1032 19.9043ZM39.1032 11.8289C38.108 11.8289 37.2265 10.9474 37.2265 9.9522C37.2265 8.95699 38.108 8.07552 39.1032 8.07552C40.0984 8.07552 40.9798 8.95699 40.9798 9.9522C40.9798 10.9474 40.0984 11.8289 39.1032 11.8289ZM39.1032 3.75348C38.108 3.75348 37.2265 2.87201 37.2265 1.8768C37.2265 0.881592 38.108 0.00012207 39.1032 0.00012207C40.0984 0.00012207 40.9798 0.881592 40.9798 1.8768C40.9798 2.87201 40.0984 3.75348 39.1032 3.75348Z" fill="#12161C"/>
</svg>
