<svg width="179" height="42" viewBox="0 0 179 42" fill="none" xmlns="http://www.w3.org/2000/svg">
<path d="M94.6736 41.4997C92.6085 41.4997 90.7794 39.6706 90.7794 37.6055C90.7794 35.5405 92.6085 33.7114 94.6736 33.7114C96.7386 33.7114 98.5677 35.5405 98.5677 37.6055C98.5677 39.6706 96.7386 41.4997 94.6736 41.4997ZM94.6736 16.3648C92.6085 16.3648 90.7794 14.5357 90.7794 12.4707C90.7794 10.4056 92.6085 8.57653 94.6736 8.57653C96.7386 8.57653 98.5677 10.4056 98.5677 12.4707C98.5677 14.5357 96.7386 16.3648 94.6736 16.3648ZM103.052 41.4997C100.987 41.4997 99.1577 39.6706 99.1577 37.6055C99.1577 35.5405 100.987 33.7114 103.052 33.7114C105.117 33.7114 106.946 35.5405 106.946 37.6055C106.946 39.6706 105.117 41.4997 103.052 41.4997ZM103.052 24.7431C100.987 24.7431 99.1577 22.914 99.1577 20.849C99.1577 18.7839 100.987 16.9548 103.052 16.9548C105.117 16.9548 106.946 18.7839 106.946 20.849C106.946 22.914 105.117 24.7431 103.052 24.7431ZM103.052 7.98651C100.987 7.98651 99.1577 6.15745 99.1577 4.09238C99.1577 2.02731 100.987 0.198242 103.052 0.198242C105.117 0.198242 106.946 2.02731 106.946 4.09238C106.946 6.15745 105.117 7.98651 103.052 7.98651ZM111.43 41.4997C109.365 41.4997 107.536 39.6706 107.536 37.6055C107.536 35.5405 109.365 33.7114 111.43 33.7114C113.495 33.7114 115.324 35.5405 115.324 37.6055C115.324 39.6706 113.495 41.4997 111.43 41.4997ZM111.43 24.7431C109.365 24.7431 107.536 22.914 107.536 20.849C107.536 18.7839 109.365 16.9548 111.43 16.9548C113.495 16.9548 115.324 18.7839 115.324 20.849C115.324 22.914 113.495 24.7431 111.43 24.7431ZM111.43 7.98651C109.365 7.98651 107.536 6.15745 107.536 4.09238C107.536 2.02731 109.365 0.198242 111.43 0.198242C113.495 0.198242 115.324 2.02731 115.324 4.09238C115.324 6.15745 113.495 7.98651 111.43 7.98651ZM119.808 41.4997C117.743 41.4997 115.914 39.6706 115.914 37.6055C115.914 35.5405 117.743 33.7114 119.808 33.7114C121.873 33.7114 123.703 35.5405 123.703 37.6055C123.703 39.6706 121.873 41.4997 119.808 41.4997ZM119.808 24.7431C117.743 24.7431 115.914 22.914 115.914 20.849C115.914 18.7839 117.743 16.9548 119.808 16.9548C121.873 16.9548 123.703 18.7839 123.703 20.849C123.703 22.914 121.873 24.7431 119.808 24.7431ZM119.808 7.98651C117.743 7.98651 115.914 6.15745 115.914 4.09238C115.914 2.02731 117.743 0.198242 119.808 0.198242C121.873 0.198242 123.703 2.02731 123.703 4.09238C123.703 6.15745 121.873 7.98651 119.808 7.98651ZM128.187 33.1214C126.122 33.1214 124.293 31.2923 124.293 29.2272C124.293 27.1622 126.122 25.3331 128.187 25.3331C130.252 25.3331 132.081 27.1622 132.081 29.2272C132.081 31.2923 130.252 33.1214 128.187 33.1214ZM128.187 7.98651C126.122 7.98651 124.293 6.15745 124.293 4.09238C124.293 2.02731 126.122 0.198242 128.187 0.198242C130.252 0.198242 132.081 2.02731 132.081 4.09238C132.081 6.15745 130.252 7.98651 128.187 7.98651Z" fill="#CED5DA"/>
<path d="M140.682 7.98651C138.617 7.98651 136.787 6.15745 136.787 4.09238C136.787 2.02731 138.617 0.198242 140.682 0.198242C142.747 0.198242 144.576 2.02731 144.576 4.09238C144.576 6.15745 142.747 7.98651 140.682 7.98651ZM149.06 7.98651C146.995 7.98651 145.166 6.15745 145.166 4.09238C145.166 2.02731 146.995 0.198242 149.06 0.198242C151.125 0.198242 152.954 2.02731 152.954 4.09238C152.954 6.15745 151.125 7.98651 149.06 7.98651ZM157.438 41.4997C155.373 41.4997 153.544 39.6706 153.544 37.6055C153.544 35.5405 155.373 33.7114 157.438 33.7114C159.503 33.7114 161.332 35.5405 161.332 37.6055C161.332 39.6706 159.503 41.4997 157.438 41.4997ZM157.438 33.1214C155.373 33.1214 153.544 31.2923 153.544 29.2272C153.544 27.1622 155.373 25.3331 157.438 25.3331C159.503 25.3331 161.332 27.1622 161.332 29.2272C161.332 31.2923 159.503 33.1214 157.438 33.1214ZM157.438 24.7431C155.373 24.7431 153.544 22.914 153.544 20.849C153.544 18.7839 155.373 16.9548 157.438 16.9548C159.503 16.9548 161.332 18.7839 161.332 20.849C161.332 22.914 159.503 24.7431 157.438 24.7431ZM157.438 16.3648C155.373 16.3648 153.544 14.5357 153.544 12.4707C153.544 10.4056 155.373 8.57653 157.438 8.57653C159.503 8.57653 161.332 10.4056 161.332 12.4707C161.332 14.5357 159.503 16.3648 157.438 16.3648ZM157.438 7.98651C155.373 7.98651 153.544 6.15745 153.544 4.09238C153.544 2.02731 155.373 0.198242 157.438 0.198242C159.503 0.198242 161.332 2.02731 161.332 4.09238C161.332 6.15745 159.503 7.98651 157.438 7.98651ZM165.816 7.98651C163.751 7.98651 161.922 6.15745 161.922 4.09238C161.922 2.02731 163.751 0.198242 165.816 0.198242C167.882 0.198242 169.711 2.02731 169.711 4.09238C169.711 6.15745 167.882 7.98651 165.816 7.98651ZM174.195 7.98651C172.13 7.98651 170.301 6.15745 170.301 4.09238C170.301 2.02731 172.13 0.198242 174.195 0.198242C176.26 0.198242 178.089 2.02731 178.089 4.09238C178.089 6.15745 176.26 7.98651 174.195 7.98651Z" fill="#CED5DA"/>
<path d="M3.89413 7.78827C1.82906 7.78827 0 5.95921 0 3.89414C0 1.82906 1.82906 0 3.89413 0C5.95921 0 7.78827 1.82906 7.78827 3.89414C7.78827 5.95921 5.95921 7.78827 3.89413 7.78827ZM12.2724 7.78827C10.2074 7.78827 8.37829 5.95921 8.37829 3.89414C8.37829 1.82906 10.2074 0 12.2724 0C14.3375 0 16.1666 1.82906 16.1666 3.89414C16.1666 5.95921 14.3375 7.78827 12.2724 7.78827ZM20.6507 41.3014C18.5856 41.3014 16.7566 39.4724 16.7566 37.4073C16.7566 35.3422 18.5856 33.5132 20.6507 33.5132C22.7158 33.5132 24.5448 35.3422 24.5448 37.4073C24.5448 39.4724 22.7158 41.3014 20.6507 41.3014ZM20.6507 32.9231C18.5856 32.9231 16.7566 31.0941 16.7566 29.029C16.7566 26.9639 18.5856 25.1349 20.6507 25.1349C22.7158 25.1349 24.5448 26.9639 24.5448 29.029C24.5448 31.0941 22.7158 32.9231 20.6507 32.9231ZM20.6507 24.5448C18.5856 24.5448 16.7566 22.7158 16.7566 20.6507C16.7566 18.5856 18.5856 16.7566 20.6507 16.7566C22.7158 16.7566 24.5448 18.5856 24.5448 20.6507C24.5448 22.7158 22.7158 24.5448 20.6507 24.5448ZM20.6507 16.1666C18.5856 16.1666 16.7566 14.3375 16.7566 12.2724C16.7566 10.2074 18.5856 8.37829 20.6507 8.37829C22.7158 8.37829 24.5448 10.2074 24.5448 12.2724C24.5448 14.3375 22.7158 16.1666 20.6507 16.1666ZM20.6507 7.78827C18.5856 7.78827 16.7566 5.95921 16.7566 3.89414C16.7566 1.82906 18.5856 0 20.6507 0C22.7158 0 24.5448 1.82906 24.5448 3.89414C24.5448 5.95921 22.7158 7.78827 20.6507 7.78827ZM29.029 7.78827C26.9639 7.78827 25.1349 5.95921 25.1349 3.89414C25.1349 1.82906 26.9639 0 29.029 0C31.0941 0 32.9231 1.82906 32.9231 3.89414C32.9231 5.95921 31.0941 7.78827 29.029 7.78827ZM37.4073 7.78827C35.3422 7.78827 33.5132 5.95921 33.5132 3.89414C33.5132 1.82906 35.3422 0 37.4073 0C39.4724 0 41.3014 1.82906 41.3014 3.89414C41.3014 5.95921 39.4724 7.78827 37.4073 7.78827Z" fill="#CED5DA"/>
<path d="M47.6264 32.9231C45.5614 32.9231 43.7323 31.0941 43.7323 29.029C43.7323 26.9639 45.5614 25.1349 47.6264 25.1349C49.6915 25.1349 51.5206 26.9639 51.5206 29.029C51.5206 31.0941 49.6915 32.9231 47.6264 32.9231ZM47.6264 24.5448C45.5614 24.5448 43.7323 22.7158 43.7323 20.6507C43.7323 18.5856 45.5614 16.7566 47.6264 16.7566C49.6915 16.7566 51.5206 18.5856 51.5206 20.6507C51.5206 22.7158 49.6915 24.5448 47.6264 24.5448ZM47.6264 16.1666C45.5614 16.1666 43.7323 14.3375 43.7323 12.2724C43.7323 10.2074 45.5614 8.37829 47.6264 8.37829C49.6915 8.37829 51.5206 10.2074 51.5206 12.2724C51.5206 14.3375 49.6915 16.1666 47.6264 16.1666ZM56.0047 41.3014C53.9397 41.3014 52.1106 39.4724 52.1106 37.4073C52.1106 35.3422 53.9397 33.5132 56.0047 33.5132C58.0698 33.5132 59.8989 35.3422 59.8989 37.4073C59.8989 39.4724 58.0698 41.3014 56.0047 41.3014ZM56.0047 24.5448C53.9397 24.5448 52.1106 22.7158 52.1106 20.6507C52.1106 18.5856 53.9397 16.7566 56.0047 16.7566C58.0698 16.7566 59.8989 18.5856 59.8989 20.6507C59.8989 22.7158 58.0698 24.5448 56.0047 24.5448ZM56.0047 7.78827C53.9397 7.78827 52.1106 5.95921 52.1106 3.89414C52.1106 1.82906 53.9397 0 56.0047 0C58.0698 0 59.8989 1.82906 59.8989 3.89414C59.8989 5.95921 58.0698 7.78827 56.0047 7.78827ZM64.383 41.3014C62.3179 41.3014 60.4889 39.4724 60.4889 37.4073C60.4889 35.3422 62.3179 33.5132 64.383 33.5132C66.4481 33.5132 68.2771 35.3422 68.2771 37.4073C68.2771 39.4724 66.4481 41.3014 64.383 41.3014ZM64.383 24.5448C62.3179 24.5448 60.4889 22.7158 60.4889 20.6507C60.4889 18.5856 62.3179 16.7566 64.383 16.7566C66.4481 16.7566 68.2771 18.5856 68.2771 20.6507C68.2771 22.7158 66.4481 24.5448 64.383 24.5448ZM64.383 7.78827C62.3179 7.78827 60.4889 5.95921 60.4889 3.89414C60.4889 1.82906 62.3179 0 64.383 0C66.4481 0 68.2771 1.82906 68.2771 3.89414C68.2771 5.95921 66.4481 7.78827 64.383 7.78827ZM72.7613 41.3014C70.6962 41.3014 68.8672 39.4724 68.8672 37.4073C68.8672 35.3422 70.6962 33.5132 72.7613 33.5132C74.8264 33.5132 76.6554 35.3422 76.6554 37.4073C76.6554 39.4724 74.8264 41.3014 72.7613 41.3014ZM72.7613 24.5448C70.6962 24.5448 68.8672 22.7158 68.8672 20.6507C68.8672 18.5856 70.6962 16.7566 72.7613 16.7566C74.8264 16.7566 76.6554 18.5856 76.6554 20.6507C76.6554 22.7158 74.8264 24.5448 72.7613 24.5448ZM72.7613 7.78827C70.6962 7.78827 68.8672 5.95921 68.8672 3.89414C68.8672 1.82906 70.6962 0 72.7613 0C74.8264 0 76.6554 1.82906 76.6554 3.89414C76.6554 5.95921 74.8264 7.78827 72.7613 7.78827ZM81.1396 41.3014C79.0745 41.3014 77.2455 39.4724 77.2455 37.4073C77.2455 35.3422 79.0745 33.5132 81.1396 33.5132C83.2047 33.5132 85.0337 35.3422 85.0337 37.4073C85.0337 39.4724 83.2047 41.3014 81.1396 41.3014ZM81.1396 24.5448C79.0745 24.5448 77.2455 22.7158 77.2455 20.6507C77.2455 18.5856 79.0745 16.7566 81.1396 16.7566C83.2047 16.7566 85.0337 18.5856 85.0337 20.6507C85.0337 22.7158 83.2047 24.5448 81.1396 24.5448ZM81.1396 7.78827C79.0745 7.78827 77.2455 5.95921 77.2455 3.89414C77.2455 1.82906 79.0745 0 81.1396 0C83.2047 0 85.0337 1.82906 85.0337 3.89414C85.0337 5.95921 83.2047 7.78827 81.1396 7.78827Z" fill="#CED5DA"/>
</svg>
